<svg id="visual" viewBox="0 0 1920 1080" width="1920" height="1080" xmlns="http://www.w3.org/2000/svg" xmlns:xlink="http://www.w3.org/1999/xlink" version="1.1"><rect x="0" y="0" width="1920" height="1080" fill="#fbfff1"></rect><defs><linearGradient id="grad1_0" x1="43.8%" y1="100%" x2="100%" y2="0%"><stop offset="14.444444444444446%" stop-color="#fbfff1" stop-opacity="1"></stop><stop offset="85.55555555555554%" stop-color="#fbfff1" stop-opacity="1"></stop></linearGradient></defs><defs><linearGradient id="grad2_0" x1="0%" y1="100%" x2="56.3%" y2="0%"><stop offset="14.444444444444446%" stop-color="#fbfff1" stop-opacity="1"></stop><stop offset="85.55555555555554%" stop-color="#fbfff1" stop-opacity="1"></stop></linearGradient></defs><g transform="translate(1920, 1080)"><path d="M-864 0C-797.6 -102.2 -731.3 -204.3 -663.3 -274.8C-595.4 -345.2 -525.9 -383.8 -478.7 -478.7C-431.5 -573.6 -406.7 -724.6 -330.6 -798.2C-254.6 -871.8 -127.3 -867.9 0 -864L0 0Z" fill="#d2baef"></path></g><g transform="translate(0, 0)"><path d="M864 0C841.7 115.8 819.5 231.6 760.4 314.9C701.2 398.3 605.3 449 533.9 533.9C462.4 618.7 415.5 737.5 330.6 798.2C245.7 858.9 122.9 861.5 0 864L0 0Z" fill="#d2baef"></path></g></svg>