<svg id="visual" viewBox="0 0 1920 1080" width="1920" height="1080" xmlns="http://www.w3.org/2000/svg" xmlns:xlink="http://www.w3.org/1999/xlink" version="1.1"><rect x="0" y="0" width="1920" height="1080" fill="#fbfff1"></rect><defs><linearGradient id="grad1_0" x1="43.8%" y1="0%" x2="100%" y2="100%"><stop offset="14.444444444444446%" stop-color="#fbfff1" stop-opacity="1"></stop><stop offset="85.55555555555554%" stop-color="#fbfff1" stop-opacity="1"></stop></linearGradient></defs><defs><linearGradient id="grad2_0" x1="0%" y1="0%" x2="56.3%" y2="100%"><stop offset="14.444444444444446%" stop-color="#fbfff1" stop-opacity="1"></stop><stop offset="85.55555555555554%" stop-color="#fbfff1" stop-opacity="1"></stop></linearGradient></defs><g transform="translate(1920, 0)"><path d="M0 864C-102.2 797.6 -204.3 731.3 -274.8 663.3C-345.2 595.4 -383.8 525.9 -478.7 478.7C-573.6 431.5 -724.6 406.7 -798.2 330.6C-871.8 254.6 -867.9 127.3 -864 0L0 0Z" fill="#d2baef"></path></g><g transform="translate(0, 1080)"><path d="M0 -864C115.8 -841.7 231.6 -819.5 314.9 -760.4C398.3 -701.2 449 -605.3 533.9 -533.9C618.7 -462.4 737.5 -415.5 798.2 -330.6C858.9 -245.7 861.5 -122.9 864 0L0 0Z" fill="#d2baef"></path></g></svg>