<svg id="visual" viewBox="0 0 2560 1440" width="2560" height="1440" xmlns="http://www.w3.org/2000/svg" xmlns:xlink="http://www.w3.org/1999/xlink" version="1.1"><rect x="0" y="0" width="2560" height="1440" fill="#fbfff1"></rect><defs><linearGradient id="grad1_0" x1="43.8%" y1="100%" x2="100%" y2="0%"><stop offset="14.444444444444446%" stop-color="#fbfff1" stop-opacity="1"></stop><stop offset="85.55555555555554%" stop-color="#fbfff1" stop-opacity="1"></stop></linearGradient></defs><defs><linearGradient id="grad2_0" x1="0%" y1="100%" x2="56.3%" y2="0%"><stop offset="14.444444444444446%" stop-color="#fbfff1" stop-opacity="1"></stop><stop offset="85.55555555555554%" stop-color="#fbfff1" stop-opacity="1"></stop></linearGradient></defs><g transform="translate(2560, 1440)"><path d="M-1008 0C-977.9 -129.6 -947.9 -259.3 -891.5 -369.3C-835.2 -479.3 -752.7 -569.7 -668.2 -668.2C-583.8 -766.7 -497.4 -873.3 -385.7 -931.3C-274.1 -989.2 -137 -998.6 0 -1008L0 0Z" fill="#c39eef"></path></g><g transform="translate(0, 0)"><path d="M1008 0C940.7 109.2 873.4 218.4 835.2 345.9C796.9 473.5 787.7 619.5 712.8 712.8C637.8 806 497.1 846.5 367.4 886.9C237.6 927.3 118.8 967.7 0 1008L0 0Z" fill="#c39eef"></path></g></svg>